<svg xmlns="http://www.w3.org/2000/svg" xmlns:xlink="http://www.w3.org/1999/xlink" preserveAspectRatio="xMidYMid" width="15.031" height="13.06" viewBox="0 0 15.031 13.06">
  <defs>
    <style>
      .cls-1 {
        fill: #363636;
        fill-rule: evenodd;
      }
    </style>
  </defs>
  <path d="M14.886,6.923 C14.790,7.037 14.666,7.104 14.516,7.123 L5.080,8.256 C5.085,8.299 5.099,8.365 5.120,8.455 C5.141,8.546 5.159,8.627 5.174,8.702 C5.189,8.776 5.197,8.843 5.197,8.906 C5.197,9.005 5.124,9.203 4.980,9.500 L13.295,9.500 C13.452,9.500 13.588,9.559 13.702,9.677 C13.816,9.795 13.874,9.934 13.874,10.095 C13.874,10.256 13.816,10.395 13.702,10.513 C13.588,10.631 13.452,10.690 13.295,10.690 L12.717,10.690 L4.619,10.690 L4.040,10.690 C3.883,10.690 3.748,10.631 3.633,10.513 C3.519,10.395 3.462,10.256 3.462,10.095 C3.462,10.008 3.495,9.886 3.561,9.728 C3.627,9.570 3.716,9.386 3.828,9.175 C3.939,8.965 4.001,8.847 4.013,8.822 L2.413,1.178 L0.569,1.178 C0.413,1.178 0.277,1.119 0.163,1.002 C0.048,0.884 -0.009,0.745 -0.009,0.584 C-0.009,0.423 0.048,0.284 0.163,0.166 C0.277,0.048 0.413,-0.011 0.569,-0.011 L2.883,-0.011 C2.980,-0.011 3.065,0.009 3.141,0.050 C3.216,0.090 3.276,0.138 3.321,0.194 C3.367,0.250 3.406,0.325 3.439,0.421 C3.472,0.517 3.495,0.600 3.507,0.667 C3.519,0.735 3.535,0.826 3.557,0.941 C3.578,1.056 3.591,1.135 3.597,1.178 L14.453,1.178 C14.609,1.178 14.745,1.237 14.859,1.354 C14.974,1.473 15.031,1.612 15.031,1.773 L15.031,6.528 C15.031,6.677 14.983,6.809 14.886,6.923 ZM13.874,11.878 C13.874,12.206 13.761,12.487 13.535,12.718 C13.309,12.951 13.036,13.067 12.717,13.067 C12.398,13.067 12.125,12.951 11.899,12.718 C11.673,12.487 11.560,12.206 11.560,11.878 C11.560,11.550 11.673,11.270 11.899,11.037 C12.125,10.805 12.398,10.690 12.717,10.690 C13.036,10.690 13.309,10.805 13.535,11.037 C13.761,11.270 13.874,11.550 13.874,11.878 ZM5.775,11.878 C5.775,12.206 5.662,12.487 5.436,12.718 C5.211,12.951 4.938,13.067 4.619,13.067 C4.299,13.067 4.026,12.951 3.800,12.718 C3.574,12.487 3.462,12.206 3.462,11.878 C3.462,11.550 3.574,11.270 3.800,11.037 C4.026,10.805 4.299,10.690 4.619,10.690 C4.938,10.690 5.211,10.805 5.436,11.037 C5.663,11.270 5.775,11.550 5.775,11.878 Z" class="cls-1"/>
</svg>
