<svg xmlns="http://www.w3.org/2000/svg" xmlns:xlink="http://www.w3.org/1999/xlink" preserveAspectRatio="xMidYMid" width="51" height="44" viewBox="0 0 51 44">
  <defs>
    <style>
      .cls-1 {
        fill: #161616;
        fill-rule: evenodd;
      }
    </style>
  </defs>
  <path d="M23.885,27.113 C21.970,29.300 20.480,31.681 19.353,34.296 C18.233,36.893 17.535,39.598 17.355,42.434 C17.299,43.321 16.898,43.844 16.218,43.971 C15.480,44.108 14.898,43.787 14.530,42.965 C13.706,41.129 12.907,39.282 12.099,37.439 C11.995,37.201 11.897,36.961 11.762,36.641 C10.719,37.087 9.719,37.509 8.724,37.943 C7.211,38.604 6.270,37.971 6.386,36.310 C6.633,32.769 7.609,29.422 9.121,26.228 C9.229,26.000 9.338,25.772 9.484,25.464 C8.641,25.629 7.908,25.844 7.163,25.905 C2.977,26.248 -0.157,22.881 0.006,18.486 C0.142,14.816 0.126,11.133 0.006,7.462 C-0.114,3.778 1.905,0.831 5.301,0.132 C6.815,-0.180 8.299,0.099 9.719,0.590 C12.750,1.636 15.754,2.763 18.769,3.857 C18.859,3.890 18.948,3.923 19.035,3.962 C20.159,4.464 21.199,4.469 22.407,3.967 C24.781,2.981 27.196,3.255 29.544,4.281 C29.870,4.423 30.332,4.465 30.662,4.350 C33.961,3.204 37.240,1.997 40.538,0.848 C42.182,0.276 43.864,-0.217 45.631,0.131 C49.064,0.807 51.117,3.791 50.991,7.485 C50.867,11.156 50.863,14.839 50.993,18.509 C51.134,22.481 48.632,25.755 44.834,25.907 C43.364,25.966 41.864,25.399 40.388,25.069 C39.725,24.921 39.088,24.653 38.347,24.576 C38.941,25.098 39.518,25.641 40.132,26.139 C42.090,27.729 44.244,28.975 46.573,29.932 C47.018,30.115 47.507,30.486 47.714,30.903 C48.111,31.705 47.492,32.661 46.540,32.800 C44.613,33.080 42.679,33.310 40.747,33.558 C40.396,33.603 40.044,33.640 39.587,33.693 C39.712,34.867 39.816,36.007 39.958,37.143 C40.139,38.600 39.176,39.377 37.809,38.840 C32.128,36.609 27.714,32.803 24.324,27.727 C24.195,27.534 24.054,27.349 23.885,27.113 ZM18.242,6.716 C17.223,6.337 16.253,5.955 15.270,5.614 C12.736,4.735 10.222,3.780 7.650,3.032 C5.040,2.272 2.820,4.115 2.837,6.867 C2.840,7.514 2.927,8.162 2.923,8.809 C2.902,12.244 2.854,15.680 2.836,19.115 C2.822,21.816 5.052,23.601 7.618,22.916 C9.107,22.518 10.587,22.066 12.041,21.551 C14.114,20.818 16.160,20.005 18.231,19.222 C15.259,15.048 15.257,10.922 18.242,6.716 ZM32.713,6.660 C35.764,10.932 35.756,15.075 32.693,19.344 C36.281,20.564 39.802,21.778 43.335,22.955 C46.003,23.844 48.264,21.479 48.181,18.821 C48.062,15.031 48.047,11.232 48.150,7.442 C48.239,4.196 46.200,2.230 43.103,3.125 C39.621,4.130 36.228,5.449 32.713,6.660 ZM25.497,19.720 C29.160,19.722 32.201,16.651 32.177,12.974 C32.154,9.294 29.178,6.283 25.538,6.258 C21.879,6.232 18.853,9.256 18.822,12.969 C18.791,16.642 21.832,19.719 25.497,19.720 ZM24.270,22.637 C23.207,22.258 22.234,21.893 21.247,21.573 C21.002,21.493 20.686,21.488 20.445,21.572 C18.316,22.314 16.194,23.074 14.080,23.859 C13.817,23.956 13.532,24.187 13.404,24.433 C12.461,26.258 11.460,28.061 10.671,29.953 C10.089,31.346 9.800,32.863 9.379,34.328 C9.578,34.380 9.602,34.396 9.619,34.390 C10.353,34.118 11.083,33.839 11.819,33.572 C12.959,33.157 13.601,33.460 14.049,34.618 C14.309,35.288 14.561,35.961 14.825,36.629 C14.928,36.892 15.052,37.146 15.241,37.571 C16.871,31.553 19.906,26.663 24.270,22.637 ZM25.887,24.842 C28.653,29.439 32.190,32.929 36.875,35.324 C36.813,34.325 36.735,33.442 36.708,32.558 C36.677,31.551 37.125,31.048 38.112,30.933 C38.583,30.878 39.058,30.858 39.530,30.812 C40.123,30.754 40.714,30.685 41.457,30.604 C41.198,30.422 41.087,30.336 40.969,30.262 C37.978,28.364 35.394,26.002 33.320,23.120 C32.654,22.196 31.771,21.939 30.828,21.660 C30.694,21.620 30.493,21.668 30.373,21.750 C28.883,22.765 27.402,23.795 25.887,24.842 Z" class="cls-1"/>
</svg>
