<svg xmlns="http://www.w3.org/2000/svg" xmlns:xlink="http://www.w3.org/1999/xlink" preserveAspectRatio="xMidYMid" width="20.32" height="17.188" viewBox="0 0 20.32 17.188">
  <defs>
    <style>
      .cls-1 {
        fill: #000;
        filter: url(#color-overlay-1);
        fill-rule: evenodd;
      }
    </style>

    <filter id="color-overlay-1" filterUnits="userSpaceOnUse">
      <feFlood flood-color="#363636"/>
      <feComposite operator="in" in2="SourceGraphic"/>
      <feBlend in2="SourceGraphic" result="solidFill"/>
    </filter>
  </defs>
  <path d="M20.132,9.111 C20.002,9.262 19.835,9.349 19.631,9.374 L6.872,10.865 C6.880,10.922 6.898,11.009 6.927,11.127 C6.956,11.245 6.980,11.353 7.000,11.451 C7.021,11.549 7.031,11.638 7.031,11.721 C7.031,11.851 6.933,12.112 6.738,12.502 L17.981,12.502 C18.192,12.502 18.376,12.580 18.531,12.734 C18.685,12.889 18.763,13.073 18.763,13.285 C18.763,13.496 18.685,13.680 18.531,13.834 C18.376,13.989 18.192,14.067 17.981,14.067 L17.199,14.067 L6.249,14.067 L5.467,14.067 C5.255,14.067 5.072,13.989 4.917,13.834 C4.762,13.680 4.685,13.496 4.685,13.285 C4.685,13.170 4.729,13.009 4.819,12.801 C4.908,12.594 5.029,12.351 5.179,12.074 C5.330,11.797 5.414,11.642 5.430,11.610 L3.267,1.552 L0.774,1.552 C0.562,1.552 0.379,1.474 0.224,1.320 C0.069,1.165 -0.008,0.982 -0.008,0.770 C-0.008,0.558 0.069,0.374 0.224,0.220 C0.379,0.065 0.562,-0.013 0.774,-0.013 L3.903,-0.013 C4.033,-0.013 4.149,0.015 4.251,0.067 C4.353,0.120 4.434,0.183 4.495,0.257 C4.556,0.330 4.609,0.429 4.654,0.556 C4.699,0.682 4.729,0.790 4.746,0.880 C4.762,0.969 4.784,1.089 4.813,1.240 C4.841,1.391 4.860,1.495 4.868,1.551 L19.545,1.551 C19.757,1.551 19.940,1.629 20.095,1.784 C20.250,1.939 20.327,2.122 20.328,2.334 L20.328,8.592 C20.328,8.787 20.262,8.960 20.132,9.111 ZM18.763,15.632 C18.763,16.063 18.610,16.431 18.305,16.737 C17.999,17.042 17.631,17.195 17.199,17.195 C16.767,17.195 16.398,17.042 16.093,16.737 C15.788,16.431 15.635,16.063 15.635,15.632 C15.635,15.199 15.788,14.831 16.093,14.524 C16.398,14.219 16.767,14.067 17.199,14.067 C17.631,14.067 17.999,14.219 18.305,14.524 C18.611,14.831 18.763,15.199 18.763,15.632 ZM7.813,15.632 C7.813,16.063 7.660,16.431 7.355,16.737 C7.049,17.042 6.681,17.195 6.249,17.195 C5.817,17.195 5.448,17.042 5.143,16.737 C4.837,16.431 4.685,16.063 4.685,15.632 C4.685,15.199 4.837,14.831 5.143,14.524 C5.448,14.219 5.817,14.067 6.249,14.067 C6.681,14.067 7.049,14.219 7.355,14.524 C7.661,14.831 7.813,15.199 7.813,15.632 Z" class="cls-1"/>
</svg>
