<svg xmlns="http://www.w3.org/2000/svg" xmlns:xlink="http://www.w3.org/1999/xlink" preserveAspectRatio="xMidYMid" width="12.76" height="12.75" viewBox="0 0 12.76 12.75">
  <defs>
    <style>
      .cls-1 {
        fill: #b9b9b9;
        fill-rule: evenodd;
      }
    </style>
  </defs>
  <path d="M12.744,2.132 C12.356,1.744 11.885,1.497 11.389,1.366 C11.259,0.871 11.011,0.399 10.623,0.011 L12.744,2.132 ZM10.623,4.254 L8.502,6.375 L10.623,8.496 C11.406,9.279 11.653,10.385 11.389,11.383 C10.390,11.647 9.285,11.400 8.502,10.617 L6.381,8.496 L4.259,10.618 C3.476,11.401 2.370,11.648 1.371,11.384 C1.107,10.385 1.355,9.279 2.138,8.496 L4.259,6.375 L2.137,4.253 C1.354,3.470 1.107,2.364 1.371,1.365 C2.370,1.101 3.476,1.348 4.259,2.132 L6.381,4.253 L8.502,2.132 C9.285,1.349 10.391,1.102 11.389,1.366 C11.653,2.365 11.406,3.471 10.623,4.254 ZM10.623,12.738 C11.011,12.350 11.258,11.879 11.389,11.383 C11.885,11.252 12.356,11.005 12.744,10.617 L10.623,12.738 ZM0.016,10.618 C0.405,11.006 0.876,11.253 1.371,11.384 C1.502,11.879 1.749,12.351 2.138,12.739 L0.016,10.618 ZM2.137,0.011 C1.749,0.399 1.502,0.870 1.371,1.365 C0.876,1.496 0.405,1.743 0.016,2.132 L2.137,0.011 Z" class="cls-1"/>
</svg>
