<svg xmlns="http://www.w3.org/2000/svg" xmlns:xlink="http://www.w3.org/1999/xlink" preserveAspectRatio="xMidYMid" width="12" height="23" viewBox="0 0 12 23">
  <defs>
    <style>
      .cls-1 {
        fill: #e5493a;
        fill-rule: evenodd;
      }
    </style>
  </defs>
  <path d="M6.001,5.779 C6.942,4.923 7.871,4.084 8.790,3.233 C8.861,3.167 8.890,3.025 8.891,2.918 C8.900,2.231 8.892,1.544 8.898,0.857 C8.900,0.698 8.915,0.532 8.965,0.383 C9.062,0.101 9.363,-0.045 9.668,0.011 C9.959,0.065 10.168,0.298 10.173,0.628 C10.185,1.369 10.164,2.110 10.188,2.850 C10.197,3.119 10.259,3.399 10.357,3.649 C10.713,4.565 11.045,5.490 10.873,6.489 C10.803,6.901 10.684,7.364 10.428,7.671 C9.742,8.493 9.675,9.404 9.885,10.370 C10.292,12.243 10.714,14.113 11.160,15.977 C11.651,18.029 11.944,20.103 12.000,22.212 C12.014,22.755 11.778,22.999 11.229,22.999 C7.751,23.000 4.273,23.000 0.795,22.999 C0.191,22.999 -0.004,22.750 -0.000,22.144 C0.021,18.999 0.820,15.995 1.578,12.978 C1.846,11.910 2.006,10.814 2.184,9.725 C2.282,9.126 2.199,8.529 1.800,8.047 C1.023,7.108 0.926,6.051 1.210,4.924 C1.311,4.520 1.443,4.119 1.612,3.739 C1.761,3.406 1.821,3.076 1.813,2.715 C1.798,2.060 1.805,1.405 1.810,0.751 C1.813,0.287 2.044,0.010 2.422,-0.001 C2.818,-0.013 3.084,0.265 3.091,0.736 C3.101,1.455 3.086,2.174 3.100,2.893 C3.103,3.025 3.160,3.193 3.252,3.280 C4.126,4.101 5.014,4.907 5.898,5.717 C5.921,5.738 5.952,5.750 6.001,5.779 ZM10.686,21.713 C10.686,21.612 10.689,21.529 10.686,21.446 C10.607,19.639 10.309,17.866 9.878,16.113 C9.367,14.033 8.740,11.979 8.529,9.833 C8.434,8.862 8.635,7.986 9.216,7.192 C9.382,6.966 9.523,6.696 9.591,6.425 C9.758,5.762 9.544,5.139 9.316,4.492 C9.212,4.582 9.130,4.648 9.053,4.720 C8.204,5.506 7.356,6.293 6.508,7.079 C6.143,7.418 5.833,7.413 5.470,7.067 C5.159,6.772 4.852,6.474 4.537,6.183 C3.927,5.619 3.313,5.058 2.692,4.488 C2.659,4.553 2.643,4.580 2.631,4.610 C2.612,4.660 2.596,4.711 2.578,4.762 C2.259,5.689 2.213,6.552 2.894,7.393 C3.439,8.068 3.599,8.923 3.455,9.774 C3.208,11.241 2.941,12.708 2.595,14.154 C2.124,16.124 1.593,18.080 1.401,20.105 C1.351,20.634 1.321,21.165 1.281,21.713 C4.443,21.713 7.551,21.713 10.686,21.713 Z" class="cls-1"/>
</svg>
