<svg xmlns="http://www.w3.org/2000/svg" xmlns:xlink="http://www.w3.org/1999/xlink" preserveAspectRatio="xMidYMid" width="17" height="17" viewBox="0 0 17 17">
  <defs>
    <style>
      .cls-1 {
        fill: #fff;
        fill-rule: evenodd;
      }
    </style>
  </defs>
  <path d="M12.285,16.998 C9.775,16.999 7.265,16.998 4.755,16.998 C2.240,16.998 0.160,15.052 0.033,12.533 C-0.023,11.429 0.009,10.321 0.007,9.214 C0.004,7.749 0.006,6.282 0.006,4.817 C0.007,2.494 1.537,0.579 3.797,0.089 C4.082,0.028 4.381,0.005 4.673,0.003 C5.960,-0.006 7.247,-0.002 8.535,-0.002 C9.813,-0.002 11.091,-0.003 12.369,-0.001 C14.850,0.003 16.990,2.139 16.995,4.623 C17.000,7.177 17.000,9.731 16.995,12.285 C16.990,14.877 14.868,16.997 12.285,16.998 ZM15.598,4.593 C15.568,2.850 14.119,1.415 12.384,1.397 C9.791,1.372 7.197,1.373 4.604,1.397 C2.918,1.414 1.466,2.889 1.436,4.583 C1.414,5.882 1.432,7.183 1.431,8.484 C1.431,9.784 1.409,11.085 1.437,12.386 C1.474,14.127 2.901,15.578 4.633,15.598 C7.218,15.627 9.803,15.623 12.387,15.599 C13.873,15.585 15.190,14.506 15.497,13.048 C15.617,12.478 15.609,11.876 15.611,11.290 C15.620,9.057 15.636,6.825 15.598,4.593 ZM13.046,5.146 C12.422,5.156 11.903,4.647 11.897,4.019 C11.892,3.401 12.389,2.891 13.005,2.884 C13.640,2.875 14.154,3.378 14.153,4.006 C14.152,4.630 13.662,5.135 13.046,5.146 ZM8.498,12.902 C6.096,12.904 4.121,10.909 4.127,8.487 C4.133,6.076 6.116,4.081 8.491,4.094 C10.939,4.108 12.915,6.075 12.911,8.494 C12.907,10.924 10.930,12.900 8.498,12.902 ZM8.556,5.487 C6.918,5.461 5.538,6.808 5.516,8.454 C5.494,10.110 6.843,11.490 8.504,11.509 C10.114,11.528 11.481,10.182 11.522,8.536 C11.563,6.915 10.200,5.514 8.556,5.487 Z" class="cls-1"/>
</svg>
