<svg xmlns="http://www.w3.org/2000/svg" xmlns:xlink="http://www.w3.org/1999/xlink" preserveAspectRatio="xMidYMid" width="14" height="23" viewBox="0 0 14 23">
  <defs>
    <style>
      .cls-1 {
        fill: #363636;
        fill-rule: evenodd;
      }
    </style>
  </defs>
  <path d="M14.000,11.492 C14.000,15.057 14.000,18.621 14.000,22.186 C14.000,22.789 13.790,22.999 13.185,22.999 C11.619,23.000 10.053,22.999 8.486,22.999 C7.852,22.999 7.648,22.799 7.648,22.178 C7.648,18.893 7.648,15.607 7.647,12.322 C7.647,12.183 7.651,12.040 7.620,11.906 C7.551,11.598 7.297,11.414 6.983,11.421 C6.681,11.427 6.446,11.606 6.379,11.906 C6.349,12.040 6.353,12.183 6.353,12.322 C6.351,15.607 6.352,18.892 6.352,22.178 C6.352,22.798 6.147,22.999 5.513,22.999 C3.936,22.999 2.359,23.000 0.783,22.999 C0.221,22.998 0.000,22.776 0.000,22.219 C-0.000,15.068 -0.000,7.917 0.000,0.767 C0.000,0.227 0.224,-0.001 0.762,-0.001 C4.920,-0.002 9.079,-0.002 13.237,-0.001 C13.775,-0.001 13.999,0.227 13.999,0.766 C14.000,4.342 14.000,7.917 14.000,11.492 ZM5.066,21.713 C5.066,21.573 5.066,21.448 5.066,21.323 C5.066,18.263 5.065,15.204 5.067,12.145 C5.068,11.058 5.834,10.203 6.853,10.141 C8.030,10.070 8.931,10.931 8.932,12.143 C8.936,15.202 8.934,18.261 8.934,21.320 C8.934,21.445 8.934,21.571 8.934,21.713 C10.207,21.713 11.442,21.713 12.694,21.713 C12.694,16.883 12.694,12.070 12.694,7.262 C12.644,7.246 12.614,7.234 12.583,7.226 C10.857,6.802 9.787,5.740 9.389,4.010 C9.371,3.934 9.215,3.840 9.123,3.839 C7.708,3.828 6.294,3.835 4.879,3.828 C4.691,3.827 4.630,3.884 4.590,4.072 C4.363,5.162 3.793,6.044 2.839,6.631 C2.371,6.919 1.835,7.096 1.303,7.335 C1.303,12.085 1.303,16.889 1.303,21.713 C2.556,21.713 3.791,21.713 5.066,21.713 ZM1.298,2.524 C5.119,2.524 8.902,2.524 12.695,2.524 C12.695,2.104 12.695,1.702 12.695,1.293 C8.886,1.293 5.095,1.293 1.298,1.293 C1.298,1.715 1.298,2.109 1.298,2.524 ZM3.299,3.851 C2.636,3.851 1.974,3.851 1.286,3.851 C1.286,4.210 1.286,4.551 1.286,4.892 C1.286,5.230 1.286,5.569 1.286,5.912 C2.261,5.762 3.221,4.766 3.299,3.851 ZM10.703,3.846 C10.768,4.766 11.853,5.870 12.689,5.883 C12.689,5.205 12.689,4.527 12.689,3.846 C12.010,3.846 11.357,3.846 10.703,3.846 Z" class="cls-1"/>
</svg>
