<svg xmlns="http://www.w3.org/2000/svg" xmlns:xlink="http://www.w3.org/1999/xlink" preserveAspectRatio="xMidYMid" width="16" height="16.969" viewBox="0 0 16 16.969">
  <defs>
    <style>
      .cls-1 {
        fill: #000;
        filter: url(#color-overlay-1);
        fill-rule: evenodd;
      }
    </style>

    <filter id="color-overlay-1" filterUnits="userSpaceOnUse">
      <feFlood flood-color="#363636"/>
      <feComposite operator="in" in2="SourceGraphic"/>
      <feBlend in2="SourceGraphic" result="solidFill"/>
    </filter>
  </defs>
  <path d="M15.179,16.196 C14.625,16.707 13.890,16.964 12.973,16.964 L3.034,16.964 C2.117,16.964 1.382,16.707 0.828,16.196 C0.275,15.685 -0.002,14.986 -0.002,14.102 C-0.002,13.711 0.012,13.330 0.038,12.958 C0.065,12.585 0.118,12.184 0.197,11.753 C0.277,11.322 0.377,10.922 0.499,10.554 C0.620,10.185 0.783,9.826 0.988,9.476 C1.192,9.126 1.427,8.828 1.692,8.581 C1.958,8.335 2.282,8.137 2.665,7.990 C3.048,7.842 3.470,7.769 3.933,7.769 C4.001,7.769 4.160,7.847 4.410,8.007 C4.660,8.165 4.942,8.342 5.257,8.537 C5.572,8.732 5.981,8.909 6.485,9.067 C6.989,9.226 7.495,9.305 8.003,9.305 C8.511,9.305 9.017,9.226 9.521,9.067 C10.025,8.909 10.435,8.732 10.749,8.537 C11.064,8.342 11.346,8.165 11.596,8.007 C11.846,7.847 12.005,7.769 12.074,7.769 C12.536,7.769 12.959,7.842 13.342,7.990 C13.724,8.137 14.048,8.335 14.314,8.581 C14.579,8.828 14.814,9.126 15.019,9.476 C15.224,9.826 15.387,10.185 15.508,10.554 C15.629,10.922 15.730,11.322 15.809,11.753 C15.889,12.184 15.942,12.586 15.969,12.958 C15.995,13.330 16.009,13.711 16.009,14.102 C16.009,14.986 15.732,15.685 15.179,16.196 ZM8.004,8.476 C6.798,8.476 5.769,8.061 4.916,7.232 C4.063,6.404 3.637,5.404 3.637,4.233 C3.637,3.061 4.063,2.061 4.916,1.232 C5.769,0.403 6.798,-0.011 8.004,-0.011 C9.209,-0.011 10.238,0.403 11.091,1.232 C11.944,2.061 12.370,3.061 12.370,4.233 C12.370,5.404 11.944,6.404 11.091,7.232 C10.238,8.061 9.209,8.476 8.004,8.476 Z" class="cls-1"/>
</svg>
