<svg xmlns="http://www.w3.org/2000/svg" xmlns:xlink="http://www.w3.org/1999/xlink" preserveAspectRatio="xMidYMid" width="15" height="15" viewBox="0 0 15 15">
  <defs>
    <style>
      .cls-1 {
        fill: #000;
        filter: url(#color-overlay-1);
        fill-rule: evenodd;
      }
    </style>

    <filter id="color-overlay-1" filterUnits="userSpaceOnUse">
      <feFlood flood-color="#fff"/>
      <feComposite operator="in" in2="SourceGraphic"/>
      <feBlend in2="SourceGraphic" result="solidFill"/>
    </filter>
  </defs>
  <path d="M14.822,5.437 C14.699,5.560 14.552,5.622 14.382,5.622 C14.213,5.622 14.066,5.560 13.942,5.437 L12.535,4.029 L9.289,7.274 C9.224,7.339 9.149,7.372 9.064,7.372 C8.979,7.372 8.904,7.339 8.839,7.274 L7.725,6.159 C7.659,6.094 7.627,6.020 7.627,5.935 C7.627,5.850 7.659,5.775 7.725,5.710 L10.971,2.464 L9.563,1.056 C9.439,0.933 9.377,0.786 9.377,0.616 C9.377,0.446 9.439,0.300 9.563,0.176 C9.687,0.052 9.833,-0.009 10.003,-0.009 L14.383,-0.009 C14.552,-0.009 14.699,0.052 14.823,0.176 C14.947,0.300 15.008,0.446 15.008,0.616 L15.008,4.996 C15.008,5.166 14.946,5.312 14.822,5.437 ZM4.029,12.534 L5.437,13.942 C5.561,14.066 5.623,14.212 5.623,14.382 C5.623,14.551 5.561,14.698 5.437,14.822 C5.313,14.946 5.167,15.007 4.997,15.007 L0.617,15.007 C0.448,15.007 0.301,14.946 0.177,14.822 C0.053,14.698 -0.009,14.551 -0.009,14.382 L-0.009,10.001 C-0.009,9.832 0.053,9.686 0.177,9.562 C0.301,9.438 0.448,9.376 0.617,9.376 C0.787,9.376 0.933,9.438 1.057,9.562 L2.465,10.970 L5.711,7.724 C5.776,7.658 5.851,7.626 5.936,7.626 C6.020,7.626 6.095,7.658 6.160,7.724 L7.275,8.838 C7.340,8.903 7.373,8.978 7.373,9.063 C7.373,9.148 7.340,9.223 7.275,9.288 L4.029,12.534 Z" class="cls-1"/>
</svg>
