<svg xmlns="http://www.w3.org/2000/svg" xmlns:xlink="http://www.w3.org/1999/xlink" preserveAspectRatio="xMidYMid" width="18.32" height="18.312" viewBox="0 0 18.32 18.312">
  <defs>
    <style>
      .cls-1 {
        fill: #000;
        filter: url(#color-overlay-1);
        fill-rule: evenodd;
      }
    </style>

    <filter id="color-overlay-1" filterUnits="userSpaceOnUse">
      <feFlood flood-color="#363636"/>
      <feComposite operator="in" in2="SourceGraphic"/>
      <feBlend in2="SourceGraphic" result="solidFill"/>
    </filter>
  </defs>
  <path d="M17.904,15.908 L14.131,12.135 C15.041,10.823 15.496,9.360 15.496,7.747 C15.496,6.698 15.292,5.696 14.885,4.739 C14.478,3.782 13.928,2.957 13.235,2.264 C12.542,1.571 11.717,1.021 10.761,0.614 C9.803,0.207 8.801,0.004 7.752,0.004 C6.704,0.004 5.701,0.207 4.744,0.614 C3.787,1.021 2.962,1.571 2.269,2.264 C1.576,2.957 1.026,3.782 0.619,4.739 C0.212,5.696 0.009,6.698 0.009,7.747 C0.009,8.796 0.212,9.798 0.619,10.755 C1.026,11.712 1.576,12.536 2.269,13.230 C2.962,13.922 3.787,14.473 4.744,14.879 C5.701,15.287 6.704,15.490 7.752,15.490 C9.365,15.490 10.828,15.035 12.141,14.126 L15.913,17.887 C16.177,18.166 16.507,18.306 16.903,18.306 C17.284,18.306 17.615,18.166 17.893,17.887 C18.172,17.609 18.311,17.279 18.311,16.898 C18.311,16.509 18.176,16.179 17.904,15.908 ZM11.233,11.228 C10.269,12.192 9.109,12.675 7.752,12.675 C6.396,12.675 5.235,12.192 4.271,11.228 C3.307,10.264 2.824,9.103 2.824,7.747 C2.824,6.391 3.307,5.230 4.271,4.266 C5.235,3.301 6.396,2.819 7.752,2.819 C9.109,2.819 10.269,3.301 11.233,4.266 C12.198,5.230 12.680,6.391 12.680,7.747 C12.680,9.103 12.197,10.264 11.233,11.228 Z" class="cls-1"/>
</svg>
