<svg xmlns="http://www.w3.org/2000/svg" xmlns:xlink="http://www.w3.org/1999/xlink" preserveAspectRatio="xMidYMid" width="16" height="20" viewBox="0 0 16 20">
  <defs>
    <style>
      .cls-1 {
        fill: #363636;
        fill-rule: evenodd;
      }
    </style>
  </defs>
  <path d="M8.016,0.000 C9.563,0.000 11.110,-0.000 12.657,0.001 C13.130,0.001 13.302,0.182 13.303,0.688 C13.306,1.416 13.328,2.145 13.299,2.872 C13.223,4.815 13.537,6.696 13.996,8.562 C14.538,10.767 15.082,12.973 15.596,15.186 C15.772,15.944 15.874,16.723 15.986,17.496 C16.078,18.130 15.749,18.413 15.184,18.199 C13.971,17.742 12.745,17.804 11.537,18.161 C10.307,18.523 9.098,18.973 7.879,19.377 C6.802,19.734 5.705,19.980 4.574,20.000 C2.895,20.029 1.453,19.394 0.209,18.194 C-0.031,17.963 -0.029,17.693 0.040,17.402 C0.350,16.094 0.636,14.778 0.982,13.482 C1.499,11.548 2.092,9.633 2.366,7.637 C2.532,6.422 2.633,5.193 2.694,3.966 C2.747,2.887 2.704,1.801 2.705,0.719 C2.706,0.177 2.872,0.001 3.376,0.000 C4.923,-0.000 6.470,0.000 8.016,0.000 ZM14.862,16.939 C14.847,16.819 14.844,16.745 14.828,16.673 C14.515,15.250 14.211,13.824 13.883,12.405 C13.464,10.597 13.003,8.800 12.605,6.987 C12.428,6.185 12.362,5.354 12.243,4.516 C9.431,4.516 6.592,4.516 3.736,4.516 C3.700,5.029 3.675,5.531 3.628,6.030 C3.453,7.892 3.039,9.700 2.571,11.497 C2.077,13.398 1.611,15.309 1.130,17.214 C1.081,17.407 1.082,17.541 1.260,17.688 C2.636,18.823 4.187,19.145 5.843,18.753 C7.011,18.476 8.157,18.081 9.300,17.695 C11.103,17.086 12.902,16.489 14.862,16.939 ZM3.757,3.371 C6.594,3.371 9.421,3.371 12.249,3.371 C12.249,2.611 12.249,1.870 12.249,1.118 C9.411,1.118 6.591,1.118 3.757,1.118 C3.757,1.876 3.757,2.617 3.757,3.371 Z" class="cls-1"/>
</svg>
