<svg xmlns="http://www.w3.org/2000/svg" xmlns:xlink="http://www.w3.org/1999/xlink" preserveAspectRatio="xMidYMid" width="19" height="17" viewBox="0 0 19 17">
  <defs>
    <style>
      .cls-1 {
        fill: #363636;
        fill-rule: evenodd;
      }
    </style>
  </defs>
  <path d="M3.483,6.876 C3.158,7.511 2.680,7.445 2.129,7.219 C1.577,6.992 1.000,6.819 0.436,6.619 C0.022,6.471 -0.090,6.237 0.068,5.838 C0.435,4.909 0.805,3.981 1.179,3.054 C1.526,2.192 2.157,1.607 3.072,1.317 C4.526,0.856 5.987,0.417 7.502,0.163 C9.326,-0.142 11.124,-0.007 12.900,0.448 C13.908,0.707 14.906,1.007 15.902,1.309 C16.839,1.593 17.480,2.196 17.835,3.074 C18.206,3.993 18.571,4.914 18.935,5.835 C19.090,6.226 18.973,6.474 18.567,6.617 C17.911,6.850 17.254,7.077 16.596,7.306 C16.110,7.475 16.012,7.451 15.670,7.085 C15.618,7.029 15.563,6.975 15.470,6.882 C15.419,7.304 15.373,7.685 15.327,8.066 C15.212,9.020 15.073,9.973 14.986,10.929 C14.825,12.708 15.123,14.438 15.643,16.140 C15.671,16.230 15.705,16.318 15.720,16.410 C15.764,16.680 15.588,16.924 15.309,16.975 C15.197,16.996 15.080,16.999 14.965,16.999 C11.329,17.000 7.692,17.000 4.056,16.999 C3.967,16.999 3.878,17.000 3.790,16.990 C3.393,16.946 3.215,16.680 3.305,16.302 C3.515,15.425 3.747,14.551 3.914,13.666 C4.161,12.348 4.100,11.023 3.902,9.702 C3.763,8.778 3.628,7.854 3.483,6.876 ZM6.600,1.400 C6.545,1.400 6.508,1.392 6.476,1.401 C5.399,1.712 4.319,2.011 3.250,2.343 C2.805,2.482 2.456,2.789 2.276,3.202 C1.907,4.047 1.581,4.910 1.239,5.766 C1.234,5.778 1.247,5.796 1.256,5.828 C1.663,5.968 2.076,6.119 2.497,6.248 C2.568,6.270 2.698,6.225 2.753,6.169 C3.066,5.844 3.367,5.509 3.666,5.173 C3.842,4.976 4.054,4.905 4.307,4.997 C4.573,5.094 4.641,5.314 4.624,5.559 C4.545,6.652 4.651,7.734 4.850,8.809 C5.222,10.824 5.241,12.834 4.774,14.838 C4.686,15.215 4.607,15.593 4.522,15.978 C7.857,15.978 11.159,15.978 14.466,15.978 C14.466,15.937 14.469,15.912 14.465,15.888 C14.456,15.837 14.446,15.787 14.433,15.738 C13.811,13.429 13.754,11.103 14.161,8.756 C14.340,7.724 14.494,6.688 14.389,5.635 C14.354,5.282 14.446,5.104 14.699,5.000 C14.940,4.901 15.144,4.968 15.390,5.236 C15.677,5.548 15.958,5.867 16.249,6.176 C16.298,6.228 16.403,6.288 16.457,6.271 C16.899,6.130 17.334,5.972 17.794,5.811 C17.451,4.960 17.131,4.132 16.784,3.315 C16.558,2.780 16.126,2.439 15.553,2.268 C14.751,2.029 13.946,1.793 13.142,1.560 C12.907,1.492 12.668,1.439 12.442,1.382 C12.412,1.421 12.396,1.433 12.393,1.448 C12.062,2.951 11.095,4.046 9.906,4.994 C9.605,5.233 9.381,5.242 9.099,4.989 C8.640,4.579 8.180,4.163 7.772,3.707 C7.177,3.042 6.771,2.271 6.600,1.400 ZM7.624,1.179 C7.870,2.370 8.611,3.212 9.497,3.999 C10.381,3.203 11.138,2.362 11.369,1.174 C10.113,0.987 8.890,0.986 7.624,1.179 Z" class="cls-1"/>
</svg>
