<svg xmlns="http://www.w3.org/2000/svg" xmlns:xlink="http://www.w3.org/1999/xlink" preserveAspectRatio="xMidYMid" width="18" height="17" viewBox="0 0 18 17">
  <defs>
    <style>
      .cls-1 {
        fill: #363636;
        fill-rule: evenodd;
      }
    </style>
  </defs>
  <path d="M8.941,5.912 C9.798,5.083 10.395,4.199 10.753,3.183 C11.024,2.415 11.195,1.605 11.358,0.803 C11.474,0.231 11.679,0.003 12.267,0.000 C12.858,-0.002 13.449,-0.003 14.040,0.000 C14.651,0.004 14.903,0.266 14.909,0.899 C14.930,2.946 15.201,4.950 15.951,6.866 C16.386,7.974 16.989,8.981 17.692,9.937 C17.868,10.176 17.986,10.523 17.987,10.821 C18.005,15.788 18.000,11.020 17.999,15.987 C17.999,16.765 17.770,16.999 17.014,17.000 C11.672,17.000 6.329,17.000 0.987,17.000 C0.230,16.999 0.001,16.766 0.001,15.988 C0.000,11.021 -0.002,15.789 0.009,10.822 C0.010,10.563 0.066,10.247 0.217,10.056 C2.073,7.704 2.880,4.979 3.051,2.021 C3.073,1.635 3.081,1.248 3.090,0.862 C3.104,0.270 3.368,0.004 3.961,0.000 C4.540,-0.002 5.118,-0.001 5.697,0.000 C6.347,0.002 6.553,0.208 6.641,0.881 C6.872,2.657 7.524,4.244 8.725,5.580 C8.806,5.670 8.860,5.786 8.941,5.912 ZM12.772,1.494 C12.743,1.623 12.714,1.743 12.689,1.864 C12.246,3.958 11.315,5.774 9.718,7.208 C9.148,7.719 8.856,7.714 8.279,7.201 C7.165,6.211 6.355,5.002 5.834,3.604 C5.579,2.920 5.405,2.206 5.191,1.492 C5.007,1.492 4.802,1.492 4.599,1.492 C4.580,1.544 4.560,1.577 4.557,1.612 C4.512,2.133 4.481,2.656 4.425,3.176 C4.136,5.880 3.292,8.371 1.671,10.567 C1.551,10.730 1.475,10.970 1.474,11.174 C1.463,15.728 1.466,10.547 1.466,15.102 C1.466,15.234 1.466,15.366 1.466,15.496 C6.517,15.496 11.517,15.496 16.519,15.496 C16.525,15.416 16.533,15.366 16.533,15.317 C16.534,10.650 16.535,15.719 16.528,11.052 C16.527,10.906 16.455,10.744 16.375,10.615 C16.047,10.089 15.672,9.590 15.369,9.050 C14.164,6.905 13.628,4.568 13.493,2.122 C13.456,1.444 13.456,1.444 12.772,1.494 Z" class="cls-1"/>
</svg>
