<svg xmlns="http://www.w3.org/2000/svg" xmlns:xlink="http://www.w3.org/1999/xlink" preserveAspectRatio="xMidYMid" width="20" height="11" viewBox="0 0 20 11">
  <defs>
    <style>
      .cls-1 {
        fill: #fff;
        fill-rule: evenodd;
      }
    </style>
  </defs>
  <path d="M11.682,2.750 C11.682,3.317 11.670,3.884 11.688,4.451 C11.694,4.653 11.742,4.865 11.822,5.052 C11.947,5.345 12.241,5.473 12.564,5.209 C13.099,4.772 13.463,4.212 13.833,3.654 C14.383,2.826 14.831,1.946 15.208,1.034 C15.382,0.613 15.542,0.519 16.000,0.522 C17.066,0.530 18.134,0.503 19.201,0.497 C19.357,0.496 19.519,0.522 19.669,0.567 C19.945,0.650 20.038,0.818 19.987,1.094 C19.901,1.552 19.682,1.961 19.413,2.334 C18.780,3.213 18.119,4.073 17.471,4.942 C17.285,5.192 17.092,5.438 16.922,5.697 C16.645,6.120 16.676,6.462 17.033,6.821 C17.430,7.217 17.846,7.596 18.253,7.983 C18.807,8.509 19.339,9.051 19.745,9.695 C19.832,9.833 19.904,9.987 19.947,10.143 C20.064,10.570 19.855,10.858 19.399,10.920 C19.269,10.938 19.136,10.947 19.004,10.950 C18.092,10.970 17.179,10.998 16.266,10.999 C15.796,10.999 15.362,10.823 15.015,10.528 C14.612,10.186 14.253,9.796 13.876,9.427 C13.618,9.173 13.363,8.917 13.102,8.668 C13.036,8.606 12.954,8.558 12.873,8.513 C12.612,8.370 12.423,8.394 12.200,8.588 C11.924,8.831 11.812,9.152 11.759,9.491 C11.718,9.758 11.707,10.029 11.687,10.297 C11.657,10.677 11.469,10.909 11.080,10.928 C9.774,10.993 8.464,11.026 7.255,10.425 C6.131,9.868 5.125,9.168 4.321,8.203 C2.591,6.130 1.276,3.824 0.162,1.403 C0.110,1.291 0.059,1.179 0.024,1.063 C-0.054,0.803 0.060,0.609 0.335,0.547 C0.472,0.517 0.618,0.507 0.760,0.505 C1.634,0.497 2.509,0.491 3.383,0.490 C3.790,0.490 4.070,0.669 4.251,1.033 C4.729,1.992 5.215,2.948 5.719,3.895 C5.983,4.391 6.302,4.858 6.766,5.211 C6.925,5.333 7.101,5.431 7.311,5.375 C7.400,5.351 7.497,5.285 7.549,5.211 C7.715,4.972 7.759,4.692 7.798,4.412 C7.917,3.561 7.933,2.711 7.787,1.862 C7.774,1.784 7.750,1.707 7.734,1.629 C7.640,1.165 7.326,0.923 6.866,0.825 C6.789,0.808 6.717,0.771 6.643,0.743 C6.686,0.667 6.715,0.579 6.774,0.515 C6.979,0.294 7.242,0.170 7.545,0.124 C8.590,-0.033 9.637,-0.034 10.686,0.076 C10.795,0.087 10.905,0.106 11.011,0.132 C11.471,0.250 11.646,0.377 11.708,0.971 C11.756,1.437 11.711,1.913 11.708,2.384 C11.707,2.506 11.708,2.628 11.708,2.750 C11.699,2.750 11.691,2.750 11.682,2.750 Z" class="cls-1"/>
</svg>
